<svg width="48" height="48" viewBox="0 0 48 48" fill="none" xmlns="http://www.w3.org/2000/svg">
<g id="Frame">
<path id="Vector" d="M46.4999 23.25C46.498 21.2631 45.9334 19.3174 44.8716 17.6381C43.8097 15.9587 42.294 14.6144 40.4999 13.7606V13.5C40.4982 11.5673 39.8744 9.68647 38.7207 8.13584C37.567 6.58521 35.9448 5.44715 34.0942 4.89005C32.2435 4.33295 30.2626 4.38641 28.4447 5.04252C26.6267 5.69863 25.0683 6.92253 23.9999 8.53312C22.9316 6.92253 21.3732 5.69863 19.5552 5.04252C17.7373 4.38641 15.7564 4.33295 13.9057 4.89005C12.055 5.44715 10.4328 6.58521 9.27919 8.13584C8.12552 9.68647 7.50167 11.5673 7.49994 13.5V13.7606C5.70432 14.612 4.18718 15.9555 3.12483 17.635C2.06248 19.3144 1.49854 21.2609 1.49854 23.2481C1.49854 25.2354 2.06248 27.1818 3.12483 28.8613C4.18718 30.5407 5.70432 31.8842 7.49994 32.7356V33C7.50167 34.9327 8.12552 36.8135 9.27919 38.3642C10.4328 39.9148 12.055 41.0529 13.9057 41.61C15.7564 42.167 17.7373 42.1136 19.5552 41.4575C21.3732 40.8014 22.9316 39.5775 23.9999 37.9669C25.0683 39.5775 26.6267 40.8014 28.4447 41.4575C30.2626 42.1136 32.2435 42.167 34.0942 41.61C35.9448 41.0529 37.567 39.9148 38.7207 38.3642C39.8744 36.8135 40.4982 34.9327 40.4999 33V32.7356C42.2938 31.8825 43.8093 30.5388 44.8711 28.8601C45.933 27.1814 46.4977 25.2363 46.4999 23.25ZM16.4999 39C15.0205 38.9998 13.5932 38.453 12.4924 37.4646C11.3915 36.4762 10.6946 35.1159 10.5356 33.645C11.0206 33.7141 11.51 33.7492 11.9999 33.75H13.4999C13.8978 33.75 14.2793 33.592 14.5606 33.3107C14.8419 33.0294 14.9999 32.6478 14.9999 32.25C14.9999 31.8522 14.8419 31.4706 14.5606 31.1893C14.2793 30.908 13.8978 30.75 13.4999 30.75H11.9999C10.2291 30.7521 8.51467 30.1275 7.16015 28.9868C5.80563 27.8462 4.8984 26.263 4.59909 24.5177C4.29978 22.7723 4.62769 20.9774 5.52477 19.4506C6.42185 17.9238 7.83023 16.7637 9.50057 16.1756C9.79283 16.0722 10.0458 15.8807 10.2248 15.6275C10.4038 15.3743 10.4999 15.0719 10.4999 14.7619V13.5C10.4999 11.9087 11.1321 10.3826 12.2573 9.25736C13.3825 8.13214 14.9086 7.5 16.4999 7.5C18.0912 7.5 19.6174 8.13214 20.7426 9.25736C21.8678 10.3826 22.4999 11.9087 22.4999 13.5V26.2987C20.8528 24.8173 18.7153 23.9984 16.4999 24C16.1021 24 15.7206 24.158 15.4393 24.4393C15.158 24.7206 14.9999 25.1022 14.9999 25.5C14.9999 25.8978 15.158 26.2794 15.4393 26.5607C15.7206 26.842 16.1021 27 16.4999 27C18.0912 27 19.6174 27.6321 20.7426 28.7574C21.8678 29.8826 22.4999 31.4087 22.4999 33C22.4999 34.5913 21.8678 36.1174 20.7426 37.2426C19.6174 38.3679 18.0912 39 16.4999 39ZM35.9999 30.75H34.4999C34.1021 30.75 33.7206 30.908 33.4393 31.1893C33.158 31.4706 32.9999 31.8522 32.9999 32.25C32.9999 32.6478 33.158 33.0294 33.4393 33.3107C33.7206 33.592 34.1021 33.75 34.4999 33.75H35.9999C36.4899 33.7492 36.9792 33.7141 37.4643 33.645C37.3397 34.7975 36.8839 35.8892 36.152 36.7882C35.4201 37.6871 34.4435 38.3548 33.3402 38.7105C32.2369 39.0662 31.0542 39.0947 29.935 38.7926C28.8159 38.4904 27.8083 37.8705 27.0339 37.0078C26.2596 36.1451 25.7518 35.0766 25.5718 33.9314C25.3919 32.7863 25.5475 31.6135 26.0199 30.5549C26.4923 29.4963 27.2612 28.5972 28.2338 27.9663C29.2063 27.3355 30.3407 26.9998 31.4999 27C31.8978 27 32.2793 26.842 32.5606 26.5607C32.8419 26.2794 32.9999 25.8978 32.9999 25.5C32.9999 25.1022 32.8419 24.7206 32.5606 24.4393C32.2793 24.158 31.8978 24 31.4999 24C29.2846 23.9984 27.1471 24.8173 25.4999 26.2987V13.5C25.4999 11.9087 26.1321 10.3826 27.2573 9.25736C28.3825 8.13214 29.9086 7.5 31.4999 7.5C33.0912 7.5 34.6174 8.13214 35.7426 9.25736C36.8678 10.3826 37.4999 11.9087 37.4999 13.5V14.7619C37.5 15.0719 37.5961 15.3743 37.7751 15.6275C37.954 15.8807 38.2071 16.0722 38.4993 16.1756C40.1697 16.7637 41.578 17.9238 42.4751 19.4506C43.3722 20.9774 43.7001 22.7723 43.4008 24.5177C43.1015 26.263 42.1943 27.8462 40.8397 28.9868C39.4852 30.1275 37.7708 30.7521 35.9999 30.75ZM38.9999 21C38.9999 21.3978 38.8419 21.7794 38.5606 22.0607C38.2793 22.342 37.8978 22.5 37.4999 22.5H36.7499C34.9597 22.5 33.2428 21.7888 31.977 20.523C30.7111 19.2571 29.9999 17.5402 29.9999 15.75V15C29.9999 14.6022 30.158 14.2206 30.4393 13.9393C30.7206 13.658 31.1021 13.5 31.4999 13.5C31.8978 13.5 32.2793 13.658 32.5606 13.9393C32.8419 14.2206 32.9999 14.6022 32.9999 15V15.75C32.9999 16.7446 33.395 17.6984 34.0983 18.4017C34.8016 19.1049 35.7554 19.5 36.7499 19.5H37.4999C37.8978 19.5 38.2793 19.658 38.5606 19.9393C38.8419 20.2206 38.9999 20.6022 38.9999 21ZM11.2499 22.5H10.4999C10.1021 22.5 9.72059 22.342 9.43928 22.0607C9.15798 21.7794 8.99994 21.3978 8.99994 21C8.99994 20.6022 9.15798 20.2206 9.43928 19.9393C9.72059 19.658 10.1021 19.5 10.4999 19.5H11.2499C12.2445 19.5 13.1983 19.1049 13.9016 18.4017C14.6049 17.6984 14.9999 16.7446 14.9999 15.75V15C14.9999 14.6022 15.158 14.2206 15.4393 13.9393C15.7206 13.658 16.1021 13.5 16.4999 13.5C16.8978 13.5 17.2793 13.658 17.5606 13.9393C17.8419 14.2206 17.9999 14.6022 17.9999 15V15.75C17.9999 17.5402 17.2888 19.2571 16.0229 20.523C14.757 21.7888 13.0402 22.5 11.2499 22.5Z" fill="#838684"/>
</g>
</svg>
