<svg width="48" height="48" viewBox="0 0 48 48" fill="none" xmlns="http://www.w3.org/2000/svg">
<g id="Frame">
<path id="Vector" d="M43.5132 35.0175C44.5496 32.8678 45.0582 30.5018 44.9966 28.116C44.935 25.7303 44.3051 23.3937 43.1591 21.3003C42.0131 19.2069 40.3842 17.4172 38.4076 16.0798C36.431 14.7424 34.1639 13.8959 31.7944 13.6106C31.006 11.7776 29.8598 10.1202 28.4229 8.73566C26.986 7.35111 25.2873 6.26716 23.4262 5.5473C21.5652 4.82744 19.5792 4.48613 17.5846 4.54337C15.59 4.60061 13.6269 5.05524 11.8102 5.88064C9.99347 6.70605 8.35971 7.88562 7.00457 9.3503C5.64942 10.815 4.60014 12.5353 3.91815 14.4106C3.23617 16.2858 2.9352 18.2783 3.03286 20.2714C3.13053 22.2644 3.62486 24.2179 4.48692 26.0175L3.1238 30.6506C2.97139 31.1678 2.9612 31.7166 3.0943 32.2391C3.2274 32.7616 3.49887 33.2386 3.88014 33.6199C4.26142 34.0012 4.73842 34.2726 5.26094 34.4057C5.78346 34.5388 6.3322 34.5287 6.84942 34.3762L11.4825 33.0131C12.9702 33.7279 14.5652 34.1934 16.2038 34.3912C16.9999 36.2565 18.1659 37.941 19.6315 39.3428C21.097 40.7446 22.8316 41.8347 24.7304 42.5471C26.6292 43.2596 28.6527 43.5796 30.6787 43.4878C32.7047 43.396 34.691 42.8943 36.5175 42.0131L41.1507 43.3762C41.6677 43.5285 42.2162 43.5386 42.7385 43.4056C43.2608 43.2726 43.7376 43.0013 44.1188 42.6203C44.5 42.2392 44.7715 41.7626 44.9048 41.2403C45.0381 40.7181 45.0283 40.1696 44.8763 39.6525L43.5132 35.0175ZM11.625 29.9062C11.4817 29.9066 11.3391 29.9268 11.2013 29.9663L6.00005 31.5L7.53192 26.295C7.64087 25.919 7.59848 25.5152 7.4138 25.17C6.05688 22.6323 5.65706 19.6916 6.28723 16.8837C6.9174 14.0759 8.53559 11.5881 10.8468 9.87365C13.158 8.15925 16.0084 7.33248 18.8783 7.54406C21.7481 7.75564 24.4464 8.99148 26.4812 11.0263C28.5161 13.0611 29.7519 15.7594 29.9635 18.6293C30.1751 21.4991 29.3483 24.3495 27.6339 26.6607C25.9195 28.972 23.4316 30.5901 20.6238 31.2203C17.816 31.8505 14.8752 31.4507 12.3375 30.0938C12.1193 29.973 11.8744 29.9085 11.625 29.9062ZM40.4607 35.2931L42 40.5L36.7951 38.9681C36.419 38.8592 36.0153 38.9016 35.6701 39.0863C32.9079 40.5612 29.6788 40.8989 26.6712 40.0275C23.6636 39.1561 21.1153 37.1444 19.5694 34.4212C21.6233 34.2069 23.6106 33.5704 25.4069 32.5517C27.2031 31.533 28.7694 30.1541 30.0076 28.5015C31.2458 26.8489 32.1291 24.9583 32.6021 22.9482C33.0751 20.9381 33.1276 18.852 32.7563 16.8206C34.5458 17.2424 36.2144 18.0698 37.6334 19.2388C39.0524 20.4078 40.1838 21.8873 40.9403 23.563C41.6968 25.2387 42.0581 27.0658 41.9964 28.9032C41.9347 30.7407 41.4516 32.5395 40.5844 34.1606C40.3977 34.5079 40.3553 34.9148 40.4663 35.2931H40.4607Z" fill="#838684"/>
</g>
</svg>
