<svg width="48" height="48" viewBox="0 0 48 48" fill="none" xmlns="http://www.w3.org/2000/svg">
<g id="Frame">
<path id="Vector" d="M37.5 15H34.5V12C34.4975 10.7823 34.1245 9.59424 33.4307 8.59357C32.7369 7.59291 31.755 6.82703 30.6155 6.39769C29.4761 5.96836 28.2329 5.89588 27.0513 6.18989C25.8696 6.48391 24.8054 7.13049 24 8.04375C23.4397 7.40117 22.748 6.88623 21.9717 6.53367C21.1954 6.18111 20.3526 5.99913 19.5 6C18.0266 6.00395 16.6059 6.5482 15.507 7.52962C14.4081 8.51104 13.7073 9.86146 13.5375 11.325C12.626 10.7899 11.5893 10.5051 10.5324 10.4994C9.47543 10.4937 8.43574 10.7673 7.51851 11.2925C6.60129 11.8177 5.83908 12.5759 5.30902 13.4904C4.77897 14.4048 4.49988 15.443 4.5 16.5V24C4.5 29.1717 6.55446 34.1316 10.2114 37.7886C13.8684 41.4455 18.8283 43.5 24 43.5C29.1717 43.5 34.1316 41.4455 37.7886 37.7886C41.4455 34.1316 43.5 29.1717 43.5 24V21C43.4951 19.4102 42.8613 17.887 41.7372 16.7628C40.613 15.6387 39.0898 15.0049 37.5 15ZM28.5 9C29.2956 9 30.0587 9.31607 30.6213 9.87868C31.1839 10.4413 31.5 11.2044 31.5 12V15H25.5V12C25.5 11.2044 25.8161 10.4413 26.3787 9.87868C26.9413 9.31607 27.7044 9 28.5 9ZM16.5 12C16.5 11.2044 16.8161 10.4413 17.3787 9.87868C17.9413 9.31607 18.7044 9 19.5 9C20.2956 9 21.0587 9.31607 21.6213 9.87868C22.1839 10.4413 22.5 11.2044 22.5 12V19.5C22.5 20.2957 22.1839 21.0587 21.6213 21.6213C21.0587 22.1839 20.2956 22.5 19.5 22.5C18.7044 22.5 17.9413 22.1839 17.3787 21.6213C16.8161 21.0587 16.5 20.2957 16.5 19.5V12ZM7.5 16.5C7.5 15.7044 7.81607 14.9413 8.37868 14.3787C8.94129 13.8161 9.70435 13.5 10.5 13.5C11.2956 13.5 12.0587 13.8161 12.6213 14.3787C13.1839 14.9413 13.5 15.7044 13.5 16.5V19.5C13.5 20.2957 13.1839 21.0587 12.6213 21.6213C12.0587 22.1839 11.2956 22.5 10.5 22.5C9.70435 22.5 8.94129 22.1839 8.37868 21.6213C7.81607 21.0587 7.5 20.2957 7.5 19.5V16.5ZM40.5 24C40.4816 28.3021 38.7836 32.4268 35.768 35.4951C32.7524 38.5634 28.6576 40.3325 24.3565 40.4255C20.0554 40.5184 15.8881 38.9277 12.7428 35.9925C9.59748 33.0574 7.72296 29.0098 7.51875 24.7125C8.71964 25.3969 10.12 25.6456 11.4831 25.4167C12.8462 25.1878 14.0885 24.4953 15 23.4563C16.0318 24.6379 17.4866 25.367 19.0508 25.4862C20.615 25.6055 22.1635 25.1054 23.3625 24.0938C23.9037 24.9848 24.6658 25.7211 25.575 26.2313C24.607 27.073 23.8314 28.1131 23.3009 29.281C22.7703 30.4489 22.4972 31.7172 22.5 33C22.5 33.3978 22.658 33.7794 22.9393 34.0607C23.2206 34.342 23.6022 34.5 24 34.5C24.3978 34.5 24.7794 34.342 25.0607 34.0607C25.342 33.7794 25.5 33.3978 25.5 33C25.5049 31.4102 26.1387 29.887 27.2628 28.7628C28.387 27.6387 29.9102 27.0049 31.5 27C31.8978 27 32.2794 26.842 32.5607 26.5607C32.842 26.2794 33 25.8978 33 25.5C33 25.1022 32.842 24.7206 32.5607 24.4393C32.2794 24.158 31.8978 24 31.5 24H28.5C27.7044 24 26.9413 23.6839 26.3787 23.1213C25.8161 22.5587 25.5 21.7957 25.5 21V18H37.5C38.2957 18 39.0587 18.3161 39.6213 18.8787C40.1839 19.4413 40.5 20.2044 40.5 21V24Z" fill="#838684"/>
</g>
</svg>
