<svg width="48" height="48" viewBox="0 0 48 48" fill="none" xmlns="http://www.w3.org/2000/svg">
<g id="Frame">
<path id="Vector" d="M33.0003 43.4998C33.0003 43.8976 32.8423 44.2791 32.561 44.5605C32.2797 44.8418 31.8982 44.9998 31.5003 44.9998H16.5003C16.1025 44.9998 15.721 44.8418 15.4397 44.5605C15.1584 44.2791 15.0003 43.8976 15.0003 43.4998C15.0003 43.102 15.1584 42.7204 15.4397 42.4391C15.721 42.1578 16.1025 41.9998 16.5003 41.9998H31.5003C31.8982 41.9998 32.2797 42.1578 32.561 42.4391C32.8423 42.7204 33.0003 43.102 33.0003 43.4998ZM40.5003 19.4998C40.5053 21.9991 39.9405 24.4666 38.8489 26.7149C37.7572 28.9632 36.1674 30.933 34.2003 32.4748C33.8288 32.7552 33.5272 33.1178 33.319 33.5341C33.1108 33.9505 33.0018 34.4093 33.0003 34.8748V35.9998C33.0003 36.7954 32.6843 37.5585 32.1216 38.1211C31.559 38.6837 30.796 38.9998 30.0003 38.9998H18.0003C17.2047 38.9998 16.4416 38.6837 15.879 38.1211C15.3164 37.5585 15.0003 36.7954 15.0003 35.9998V34.8748C14.999 34.4158 14.8938 33.9631 14.6924 33.5507C14.4911 33.1383 14.1989 32.7768 13.8378 32.4935C11.8748 30.9625 10.2847 29.0061 9.18694 26.7717C8.08922 24.5373 7.51255 22.083 7.50033 19.5935C7.44408 10.6498 14.6816 3.20604 23.6066 2.99979C25.807 2.9447 27.9961 3.33092 30.0448 4.13565C32.0935 4.94039 33.9602 6.14734 35.5349 7.68528C37.1095 9.22322 38.3602 11.061 39.213 13.0901C40.0658 15.1193 40.5035 17.2987 40.5003 19.4998ZM37.5003 19.4998C37.4983 17.7005 37.1371 15.9198 36.4379 14.2619C35.7387 12.6041 34.7156 11.1025 33.4286 9.84514C32.1416 8.5878 30.6165 7.60003 28.9428 6.93972C27.2691 6.27942 25.4804 5.95986 23.6816 5.99979C16.3691 6.16854 10.4628 12.2623 10.5003 19.5748C10.507 21.6114 10.9763 23.6199 11.8727 25.4486C12.7692 27.2773 14.0695 28.8784 15.6753 30.131C16.3992 30.6919 16.985 31.411 17.388 32.2333C17.791 33.0555 18.0005 33.9591 18.0003 34.8748V35.9998H30.0003V34.8748C30.0009 33.9546 30.2125 33.0468 30.6188 32.2212C31.0251 31.3956 31.6153 30.6741 32.3441 30.1123C33.9561 28.8538 35.2587 27.2432 36.1525 25.4038C37.0462 23.5644 37.5072 21.5448 37.5003 19.4998ZM34.3503 17.7373C33.9866 15.5938 32.9643 13.6169 31.4253 12.0812C29.8863 10.5456 27.9071 9.52753 25.7628 9.16854C25.5683 9.13653 25.3694 9.14315 25.1774 9.18802C24.9855 9.23288 24.8042 9.31512 24.644 9.43003C24.4838 9.54495 24.3479 9.69028 24.2439 9.85775C24.1398 10.0252 24.0698 10.2115 24.0378 10.406C24.0058 10.6006 24.0124 10.7995 24.0573 10.9914C24.1022 11.1834 24.1844 11.3647 24.2993 11.5248C24.4142 11.685 24.5596 11.821 24.727 11.925C24.8945 12.029 25.0808 12.099 25.2753 12.131C26.8037 12.3869 28.214 13.1134 29.3098 14.2091C30.4055 15.3048 31.132 16.7152 31.3878 18.2435C31.4496 18.5912 31.632 18.9058 31.903 19.1322C32.1739 19.3585 32.516 19.4821 32.8691 19.481H33.1316C33.3275 19.4495 33.5151 19.3789 33.6832 19.2734C33.8513 19.168 33.9965 19.0299 34.1101 18.8672C34.2238 18.7046 34.3037 18.5207 34.3449 18.3266C34.3862 18.1325 34.388 17.9321 34.3503 17.7373Z" fill="#838684"/>
</g>
</svg>
