<svg width="48" height="48" viewBox="0 0 48 48" fill="none" xmlns="http://www.w3.org/2000/svg">
<g id="Frame">
<path id="Vector" d="M46.65 27.45C46.3924 27.6485 46.0752 27.7542 45.75 27.75C45.5171 27.75 45.2875 27.6957 45.0792 27.5916C44.8709 27.4875 44.6897 27.3363 44.55 27.15C43.6459 25.9347 42.4691 24.9487 41.1143 24.2713C39.7596 23.5939 38.2647 23.2441 36.75 23.25C36.3522 23.25 35.9707 23.0919 35.6893 22.8106C35.408 22.5293 35.25 22.1478 35.25 21.75C35.25 21.3521 35.408 20.9706 35.6893 20.6893C35.9707 20.408 36.3522 20.25 36.75 20.25C37.6037 20.249 38.4395 20.0053 39.1599 19.5472C39.8803 19.0891 40.4555 18.4356 40.8184 17.6628C41.1813 16.8901 41.3169 16.0301 41.2094 15.1832C41.1018 14.3363 40.7556 13.5374 40.2111 12.8799C39.6667 12.2224 38.9464 11.7333 38.1344 11.4698C37.3224 11.2062 36.4522 11.1791 35.6253 11.3915C34.7985 11.604 34.0491 12.0472 33.4648 12.6696C32.8804 13.2919 32.4851 14.0676 32.325 14.9062C32.2959 15.1067 32.2265 15.2993 32.1209 15.4722C32.0153 15.6452 31.8758 15.7949 31.7108 15.9125C31.5458 16.03 31.3586 16.1129 31.1607 16.1562C30.9627 16.1994 30.7581 16.2021 30.559 16.1641C30.36 16.126 30.1708 16.0481 30.0027 15.9349C29.8346 15.8217 29.6912 15.6757 29.5812 15.5055C29.4711 15.3354 29.3967 15.1448 29.3623 14.9451C29.3279 14.7454 29.3344 14.5408 29.3813 14.3437C29.6038 13.1771 30.1002 12.0801 30.8296 11.1428C31.5589 10.2056 32.5005 9.45495 33.5767 8.95271C34.6528 8.45046 35.8329 8.21097 37.0198 8.25393C38.2066 8.2969 39.3663 8.6211 40.4033 9.19985C41.4404 9.77859 42.3252 10.5953 42.9849 11.5829C43.6446 12.5704 44.0603 13.7005 44.1979 14.8801C44.3355 16.0597 44.191 17.2551 43.7763 18.368C43.3616 19.4809 42.6885 20.4793 41.8125 21.2812C43.8512 22.1651 45.6225 23.568 46.95 25.35C47.0682 25.5075 47.1542 25.6869 47.2031 25.8777C47.252 26.0685 47.2628 26.2671 47.2349 26.4621C47.2071 26.6571 47.1411 26.8447 47.0407 27.0142C46.9404 27.1837 46.8076 27.3318 46.65 27.45ZM36.15 39.8437C36.3193 40.2025 36.3415 40.6132 36.2118 40.9882C36.0822 41.3631 35.811 41.6724 35.4563 41.85C35.2493 41.9421 35.0264 41.9931 34.8 42C34.5189 41.998 34.2439 41.9181 34.0056 41.7691C33.7673 41.6202 33.5749 41.408 33.45 41.1562C32.585 39.3868 31.2407 37.8959 29.57 36.853C27.8994 35.8101 25.9695 35.2572 24 35.2572C22.0305 35.2572 20.1006 35.8101 18.43 36.853C16.7593 37.8959 15.415 39.3868 14.55 41.1562C14.4639 41.3336 14.3437 41.4923 14.1963 41.6231C14.0488 41.754 13.877 41.8546 13.6907 41.919C13.5044 41.9834 13.3072 42.0105 13.1104 41.9987C12.9136 41.9868 12.721 41.9363 12.5438 41.85C12.189 41.6724 11.9178 41.3631 11.7882 40.9882C11.6585 40.6132 11.6807 40.2025 11.85 39.8437C13.244 36.9733 15.6085 34.6885 18.525 33.3937C17.0322 32.2495 15.9353 30.6663 15.3886 28.8666C14.8419 27.0669 14.8727 25.1412 15.4769 23.3599C16.081 21.5787 17.228 20.0314 18.7567 18.9357C20.2855 17.8399 22.1191 17.2506 24 17.2506C25.8809 17.2506 27.7146 17.8399 29.2433 18.9357C30.772 20.0314 31.919 21.5787 32.5232 23.3599C33.1273 25.1412 33.1581 27.0669 32.6114 28.8666C32.0647 30.6663 30.9678 32.2495 29.475 33.3937C32.3915 34.6885 34.756 36.9733 36.15 39.8437ZM24 32.25C25.1867 32.25 26.3467 31.8981 27.3334 31.2388C28.3201 30.5795 29.0892 29.6424 29.5433 28.5461C29.9974 27.4497 30.1162 26.2433 29.8847 25.0794C29.6532 23.9155 29.0818 22.8464 28.2426 22.0073C27.4035 21.1682 26.3344 20.5968 25.1705 20.3652C24.0067 20.1337 22.8003 20.2526 21.7039 20.7067C20.6075 21.1608 19.6705 21.9298 19.0112 22.9165C18.3519 23.9032 18 25.0633 18 26.25C18.005 27.8397 18.6387 29.363 19.7628 30.4871C20.887 31.6113 22.4102 32.245 24 32.25ZM12.75 21.75C12.75 21.3521 12.592 20.9706 12.3107 20.6893C12.0294 20.408 11.6478 20.25 11.25 20.25C10.3963 20.249 9.56048 20.0053 8.8401 19.5472C8.11972 19.0891 7.54451 18.4356 7.18162 17.6628C6.81873 16.8901 6.68313 16.0301 6.79065 15.1832C6.89818 14.3363 7.24439 13.5374 7.78887 12.8799C8.33335 12.2224 9.05363 11.7333 9.86563 11.4698C10.6776 11.2062 11.5478 11.1791 12.3747 11.3915C13.2015 11.604 13.9509 12.0472 14.5353 12.6696C15.1196 13.2919 15.5149 14.0676 15.675 14.9062C15.7041 15.1067 15.7735 15.2993 15.8791 15.4722C15.9847 15.6452 16.1242 15.7949 16.2892 15.9125C16.4543 16.03 16.6414 16.1129 16.8393 16.1562C17.0373 16.1994 17.242 16.2021 17.441 16.1641C17.64 16.126 17.8292 16.0481 17.9973 15.9349C18.1654 15.8217 18.3088 15.6757 18.4188 15.5055C18.5289 15.3354 18.6034 15.1448 18.6377 14.9451C18.6721 14.7454 18.6656 14.5408 18.6188 14.3437C18.3962 13.1771 17.8998 12.0801 17.1705 11.1428C16.4411 10.2056 15.4995 9.45495 14.4234 8.95271C13.3472 8.45046 12.1671 8.21097 10.9803 8.25393C9.79342 8.2969 8.63375 8.6211 7.5967 9.19985C6.55965 9.77859 5.67486 10.5953 5.01515 11.5829C4.35545 12.5704 3.93969 13.7005 3.8021 14.8801C3.66451 16.0597 3.80901 17.2551 4.22372 18.368C4.63843 19.4809 5.31149 20.4793 6.18751 21.2812C4.14884 22.1651 2.37748 23.568 1.05001 25.35C0.811311 25.6682 0.708821 26.0683 0.765082 26.4621C0.821343 26.8559 1.03175 27.2113 1.35001 27.45C1.60765 27.6485 1.92478 27.7542 2.25001 27.75C2.48287 27.75 2.71254 27.6957 2.92083 27.5916C3.12911 27.4875 3.31029 27.3363 3.45001 27.15C4.35411 25.9347 5.53091 24.9487 6.88568 24.2713C8.24045 23.5939 9.73534 23.2441 11.25 23.25C11.6478 23.25 12.0294 23.0919 12.3107 22.8106C12.592 22.5293 12.75 22.1478 12.75 21.75Z" fill="#838684"/>
</g>
</svg>
