<svg width="48" height="48" viewBox="0 0 48 48" fill="none" xmlns="http://www.w3.org/2000/svg">
<g id="Frame">
<path id="Vector" d="M44.8875 24.9375L38.8875 9.9375L38.7937 9.76875L38.6813 9.61875C38.6625 9.6 38.6625 9.6 38.6625 9.58125L38.5125 9.43125H38.4938L38.3625 9.3375L38.325 9.3L38.1562 9.20625H38.1375L37.9688 9.15H37.9313L37.7438 9.1125H37.1813L25.5 11.625V7.5C25.5 7.10218 25.342 6.72064 25.0607 6.43934C24.7794 6.15804 24.3978 6 24 6C23.6022 6 23.2206 6.15804 22.9393 6.43934C22.658 6.72064 22.5 7.10218 22.5 7.5V12.3L10.1812 15.0375H10.05L9.8625 15.1125H9.825L9.675 15.1875C9.675 15.19 9.67452 15.1924 9.67357 15.1947C9.67263 15.1969 9.67125 15.199 9.66951 15.2008C9.66777 15.2025 9.6657 15.2039 9.66343 15.2048C9.66115 15.2058 9.65871 15.2062 9.65625 15.2062L9.4875 15.3375C9.4875 15.3425 9.48552 15.3472 9.48201 15.3508C9.47849 15.3543 9.47372 15.3562 9.46875 15.3563L9.35625 15.4875H9.3375C9.28765 15.5345 9.24917 15.5922 9.225 15.6562L9.1875 15.6937L9.1125 15.8625H9.09375L3.1125 30.9375C3.03916 31.116 3.00096 31.307 3 31.5C3 35.8687 7.59375 37.5 10.5 37.5C13.4062 37.5 18 35.8687 18 31.5C17.999 31.307 17.9608 31.116 17.8875 30.9375L12.5438 17.5875L22.5 15.375V39H19.5C19.1022 39 18.7206 39.158 18.4393 39.4393C18.158 39.7206 18 40.1022 18 40.5C18 40.8978 18.158 41.2794 18.4393 41.5607C18.7206 41.842 19.1022 42 19.5 42H28.5C28.8978 42 29.2794 41.842 29.5607 41.5607C29.842 41.2794 30 40.8978 30 40.5C30 40.1022 29.842 39.7206 29.5607 39.4393C29.2794 39.158 28.8978 39 28.5 39H25.5V14.7L35.0437 12.5812L30.1125 24.9375C30.0392 25.116 30.001 25.307 30 25.5C30 29.8687 34.5938 31.5 37.5 31.5C40.4062 31.5 45 29.8687 45 25.5C44.999 25.307 44.9608 25.116 44.8875 24.9375ZM10.5 34.5C9.09375 34.5 6.225 33.825 6.01875 31.7625L10.5 20.5312L14.9813 31.7625C14.775 33.825 11.9062 34.5 10.5 34.5ZM37.5 28.5C36.0938 28.5 33.225 27.825 33.0188 25.7625L37.5 14.5312L41.9812 25.7625C41.775 27.825 38.9062 28.5 37.5 28.5Z" fill="#838684"/>
</g>
</svg>
