<svg width="63" height="46" viewBox="0 0 63 46" fill="none" xmlns="http://www.w3.org/2000/svg">
<g id="AI4_black_vector 1" clip-path="url(#clip0_10319_183)">
<path id="Vector" d="M0 45.606L4.40406 0.0200195H19.87L24.1963 45.606H15.5696L14.9219 38.2499H9.42982L8.85991 45.606H0ZM10.0775 30.9719H14.2225L12.2277 7.79035H11.8132L10.0775 30.9719Z" fill="#F9F8F6"/>
<path id="Vector_2" d="M27.8413 30.3067V0.0202055L36.919 0.0199618C36.919 0.0199618 36.919 -7.87046 36.919 4.27306C36.919 16.4166 34.3149 23.36 27.8413 30.3067Z" fill="#F9F8F6"/>
<path id="Vector_3" d="M28.0073 45.6417V37.4951H36.9189V45.6417H28.0073Z" fill="#F9F8F6"/>
<path id="Vector_4" d="M40.635 45.6059V44.8155H43.5057C45.3268 44.8155 46.8028 43.3459 46.8028 41.5332V34.9319C46.8028 34.5693 46.5077 34.2754 46.1434 34.2754H29.5498C35.3211 28.3466 46.7238 14.2555 49.0455 0.0200195H58.5431C55.9253 7.93689 48.6369 18.9343 31.4674 33.4847H46.1434C46.5077 33.4847 46.8028 33.1911 46.8028 32.8285V23.4422C52.2903 18.6801 55.0974 14.468 56.5143 12.3506V32.8285C56.5143 33.1911 56.8097 33.4847 57.1737 33.4847H62.8901V34.2754H57.1737C56.8097 34.2754 56.5143 34.5693 56.5143 34.9319V41.5332C56.5143 43.3459 57.9907 44.8155 59.8114 44.8155H63V45.6059H40.635Z" fill="#F9F8F6"/>
</g>
<defs>
<clipPath id="clip0_10319_183">
<rect width="63" height="48.1415" fill="white" transform="translate(0 -2.5)"/>
</clipPath>
</defs>
</svg>
